<?xml version="1.0" standalone="no"?>
<!DOCTYPE svg PUBLIC "-//W3C//DTD SVG 20010904//EN"
 "http://www.w3.org/TR/2001/REC-SVG-20010904/DTD/svg10.dtd">
<svg version="1.0" xmlns="http://www.w3.org/2000/svg"
 width="500.000000pt" height="500.000000pt" viewBox="0 0 500.000000 500.000000"
 preserveAspectRatio="xMidYMid meet">
<metadata>
Created by potrace 1.16, written by Peter Selinger 2001-2019
</metadata>
<g transform="translate(0.000000,500.000000) scale(0.100000,-0.100000)"
fill="#000000" stroke="none">
<path d="M2005 3472 c-31 -10 -66 -33 -92 -59 -24 -23 -43 -40 -43 -37 0 12
24 51 49 78 l26 28 -25 -7 c-32 -9 -84 -41 -100 -60 -7 -8 -16 -30 -20 -48
l-7 -32 -13 27 c-11 23 -10 31 4 53 l17 26 -30 -16 c-53 -27 -68 -88 -31 -125
l20 -20 -22 -9 c-13 -5 -56 -19 -96 -32 -58 -18 -76 -29 -91 -54 -10 -18 -49
-48 -94 -75 -42 -25 -77 -50 -77 -57 0 -9 7 -10 22 -4 16 6 26 4 34 -7 9 -13
14 -13 40 3 22 13 18 7 -15 -24 -43 -40 -71 -50 -38 -13 27 30 -1 44 -36 18
-18 -14 -18 -16 2 -55 12 -22 21 -49 21 -59 0 -29 65 -55 143 -58 37 -1 72 -2
77 -3 17 -2 11 -30 -9 -41 -30 -16 -61 -12 -118 15 -29 13 -54 21 -57 17 -9
-16 -18 -101 -11 -121 6 -19 14 -21 77 -21 67 0 73 2 134 45 35 24 64 43 64
40 0 -2 -18 -37 -40 -78 l-40 -74 15 -50 c31 -105 128 -216 247 -283 l41 -23
-26 34 c-14 19 -41 66 -59 104 -29 63 -33 79 -33 160 0 71 4 100 22 137 21 47
21 47 2 85 -19 38 -23 83 -10 117 6 15 9 11 19 -22 12 -38 85 -117 134 -143
25 -14 23 -6 -22 76 -32 58 -40 83 -40 124 0 55 14 69 23 24 3 -16 31 -61 61
-101 31 -41 59 -85 62 -98 17 -68 38 36 24 121 -18 110 -91 222 -168 256 -18
8 -32 17 -32 21 0 3 25 12 55 19 41 9 59 9 67 1 8 -8 4 -14 -15 -21 -36 -14
-34 -18 10 -30 29 -8 42 -7 60 4 32 22 32 84 -1 122 l-24 28 -66 -32 c-37 -18
-81 -33 -99 -33 -31 1 -31 1 -12 16 33 27 124 66 164 71 33 5 41 1 65 -28 l27
-32 53 16 c65 21 164 22 236 2 39 -11 74 -13 120 -9 l65 7 -45 13 c-25 7 -79
25 -120 40 -66 23 -86 26 -165 22 -49 -3 -99 -9 -110 -13 l-20 -7 20 14 c30
23 132 55 200 64 57 7 58 8 26 15 -121 26 -272 18 -346 -17 l-30 -15 33 29
c35 31 90 51 143 53 32 1 32 2 9 9 -42 13 -132 10 -185 -8z"/>
<path d="M2205 3221 c-19 -8 -18 -10 10 -20 75 -29 124 -59 204 -124 47 -38
115 -84 151 -101 62 -29 71 -31 185 -31 109 1 129 4 220 34 55 19 123 37 150
41 l50 8 -54 1 c-29 0 -81 -6 -115 -15 -77 -20 -272 -15 -326 9 l-35 15 46 1
c40 1 164 36 203 58 8 4 -36 8 -102 8 -111 0 -121 2 -192 34 -180 80 -192 84
-285 87 -49 2 -99 0 -110 -5z"/>
<path d="M2372 2973 c23 -46 47 -117 59 -173 55 -259 222 -453 420 -488 90
-16 226 7 299 49 19 11 28 18 19 15 -194 -57 -338 -17 -496 139 -86 85 -93 99
-23 45 164 -127 374 -150 610 -68 102 36 120 49 48 36 -29 -6 -114 -8 -188 -5
-111 4 -150 10 -215 32 -162 54 -296 161 -471 376 -53 65 -97 119 -98 119 -1
0 15 -35 36 -77z"/>
<path d="M2225 2918 c33 -92 38 -150 25 -258 -11 -83 -11 -103 3 -151 30 -103
123 -182 245 -208 79 -17 81 -14 25 24 -74 50 -108 98 -134 190 l-8 30 17 -25
c39 -57 76 -91 125 -114 84 -40 108 -42 54 -6 -91 61 -144 139 -207 303 -39
100 -117 236 -152 265 -12 10 -11 -1 7 -50z"/>
<path d="M2551 2918 c6 -13 55 -66 108 -118 153 -152 290 -212 486 -212 129 0
180 16 79 25 -91 7 -179 30 -265 69 -75 34 -84 46 -22 29 22 -6 125 -15 229
-20 220 -11 269 -21 384 -78 l85 -42 -55 50 c-115 105 -264 156 -598 204 -172
25 -316 60 -405 99 l-38 17 12 -23z"/>
<path d="M2175 2764 c-3 -26 -27 -85 -52 -133 -113 -214 -36 -354 205 -377
l67 -6 -45 30 c-65 43 -105 89 -137 157 -27 58 -28 64 -26 218 1 86 0 157 -2
157 -1 0 -6 -21 -10 -46z"/>
<path d="M1888 2703 c-20 -51 -22 -147 -3 -205 14 -42 33 -68 93 -126 41 -40
76 -71 79 -69 2 3 -10 26 -26 53 -39 62 -53 135 -41 208 5 31 12 62 15 69 4 6
-7 -3 -24 -21 -20 -20 -33 -47 -38 -75 -6 -41 -7 -41 -14 -13 -9 31 4 114 22
148 12 21 10 24 -34 49 -14 8 -19 5 -29 -18z"/>
<path d="M1432 2113 c-5 -10 -28 -71 -52 -135 -35 -97 -46 -117 -66 -122 -43
-11 -25 -26 31 -26 54 0 76 16 36 27 -16 4 -17 9 -8 34 10 26 16 29 59 29 44
0 50 -3 59 -27 8 -22 7 -30 -5 -39 -27 -19 -18 -24 49 -24 37 0 65 4 65 10 0
6 -5 10 -11 10 -11 0 -28 37 -84 183 -37 96 -55 116 -73 80z"/>
<path d="M1650 2113 c0 -10 -3 -28 -6 -40 -5 -18 -2 -23 14 -23 14 0 21 9 26
30 5 25 10 30 36 30 l30 0 0 -124 c0 -115 -1 -124 -20 -129 -11 -3 -20 -10
-20 -16 0 -7 27 -11 75 -11 48 0 75 4 75 11 0 6 -9 13 -20 16 -19 5 -20 14
-20 129 l0 124 29 0 c25 0 31 -5 36 -30 10 -46 35 -39 35 10 l0 40 -135 0
c-122 0 -135 -2 -135 -17z"/>
<path d="M1980 2121 c0 -5 9 -11 20 -14 19 -5 20 -14 20 -125 0 -111 -1 -120
-20 -125 -11 -3 -20 -10 -20 -16 0 -7 26 -11 70 -11 44 0 70 4 70 11 0 6 -9
13 -20 16 -17 5 -20 14 -20 59 l0 54 65 0 65 0 0 -54 c0 -46 -3 -56 -20 -61
-42 -13 -17 -25 55 -25 72 0 97 12 55 25 -19 6 -20 15 -20 131 0 117 1 124 20
124 11 0 20 5 20 10 0 6 -32 10 -75 10 -43 0 -75 -4 -75 -10 0 -5 9 -10 20
-10 18 0 20 -7 20 -55 l0 -55 -65 0 -65 0 0 51 c0 42 3 52 20 56 43 11 17 23
-50 23 -38 0 -70 -4 -70 -9z"/>
<path d="M2380 2121 c0 -5 9 -11 20 -14 19 -5 20 -14 20 -125 0 -111 -1 -120
-20 -125 -11 -3 -20 -10 -20 -16 0 -7 40 -11 120 -11 l120 0 0 45 c0 38 -3 45
-19 45 -14 0 -21 -8 -23 -27 -3 -26 -7 -28 -50 -31 l-48 -3 0 121 c0 113 1
122 20 127 43 11 17 23 -50 23 -38 0 -70 -4 -70 -9z"/>
<path d="M2680 2121 c0 -5 9 -11 20 -14 19 -5 20 -14 20 -125 0 -111 -1 -120
-20 -125 -11 -3 -20 -10 -20 -16 0 -7 41 -11 125 -11 l125 0 0 40 c0 33 -3 40
-20 40 -15 0 -20 -7 -20 -25 0 -24 -3 -25 -55 -25 l-55 0 0 55 c0 55 0 55 31
55 22 0 32 -5 36 -20 10 -39 23 -19 23 35 0 54 -13 74 -23 35 -4 -15 -14 -20
-37 -20 l-31 0 3 53 3 52 45 0 c39 0 45 -3 50 -25 3 -14 14 -26 23 -28 14 -3
17 4 17 37 l0 41 -120 0 c-66 0 -120 -4 -120 -9z"/>
<path d="M2980 2090 c0 -33 3 -40 20 -40 16 0 20 7 20 30 0 26 3 30 29 30 37
0 41 -11 41 -130 0 -76 -4 -102 -16 -114 -8 -9 -20 -16 -25 -16 -5 0 -9 -4 -9
-10 0 -6 33 -10 80 -10 78 0 106 13 55 26 l-26 6 3 122 3 121 33 3 c30 3 32 1
32 -27 0 -24 4 -31 20 -31 17 0 20 7 20 40 l0 40 -140 0 -140 0 0 -40z"/>
<path d="M3310 2120 c0 -5 9 -10 20 -10 19 0 20 -7 20 -124 0 -116 -1 -125
-20 -131 -50 -16 -11 -25 105 -25 l125 0 0 40 c0 46 -25 57 -36 15 -6 -22 -11
-25 -55 -25 l-49 0 0 55 c0 54 1 55 29 55 20 0 30 -6 34 -20 11 -41 27 -20 27
35 0 42 -3 55 -15 55 -8 0 -15 -9 -15 -20 0 -16 -7 -20 -30 -20 -30 0 -30 1
-30 55 l0 55 44 0 c41 0 45 -2 51 -30 10 -46 35 -39 35 10 l0 40 -120 0 c-73
0 -120 -4 -120 -10z"/>
</g>
</svg>
